<?xml version="1.0" encoding="utf-8"?>
<svg xmlns="http://www.w3.org/2000/svg" xmlns:xlink="http://www.w3.org/1999/xlink" width="600" height="450" viewBox="0 0 2400 1800">
<defs>
  <clipPath id="clip970">
    <rect x="0" y="0" width="2400" height="1800"/>
  </clipPath>
</defs>
<path clip-path="url(#clip970)" d="
M0 1800 L2400 1800 L2400 0 L0 0  Z
  " fill="#ffffff" fill-rule="evenodd" fill-opacity="1"/>
<defs>
  <clipPath id="clip971">
    <rect x="480" y="0" width="1681" height="1681"/>
  </clipPath>
</defs>
<defs>
  <clipPath id="clip972">
    <rect x="300" y="215" width="1921" height="1281"/>
  </clipPath>
</defs>
<path clip-path="url(#clip970)" d="
M300 1495 L2220 1495 L2220 215 L300 215  Z
  " fill="#ffffff" fill-rule="evenodd" fill-opacity="1"/>
<path clip-path="url(#clip970)" d="M 0 0 M257.101 1491.96 Q257.101 1483.02 259.357 1478.15 Q262.504 1470.91 269.927 1470.91 Q271.5 1470.91 273.133 1471.36 Q274.796 1471.77 276.874 1473.4 Q278.982 1475.04 280.259 1477.71 Q282.693 1482.87 282.693 1491.96 Q282.693 1500.84 280.437 1505.68 Q277.141 1512.74 269.867 1512.74 Q267.136 1512.74 264.345 1511.35 Q261.584 1509.95 259.832 1506.6 Q257.101 1501.58 257.101 1491.96 M262.148 1491.22 Q262.148 1500.39 262.801 1504.04 Q263.543 1507.99 265.562 1509.71 Q267.611 1511.41 269.867 1511.41 Q272.302 1511.41 274.321 1509.6 Q276.369 1507.75 276.993 1503.81 Q277.676 1499.92 277.646 1491.22 Q277.646 1482.76 277.052 1479.37 Q276.251 1475.42 274.113 1473.85 Q272.005 1472.25 269.867 1472.25 Q269.066 1472.25 268.205 1472.48 Q267.373 1472.72 266.156 1473.4 Q264.939 1474.09 263.989 1475.78 Q263.068 1477.47 262.623 1480.02 Q262.148 1483.32 262.148 1491.22 Z" fill="#000000" fill-rule="evenodd" fill-opacity="1" /><path clip-path="url(#clip970)" d="M 0 0 M210.458 1235.96 Q210.458 1227.02 212.715 1222.15 Q215.862 1214.91 223.284 1214.91 Q224.858 1214.91 226.491 1215.36 Q228.153 1215.77 230.232 1217.4 Q232.34 1219.04 233.616 1221.71 Q236.051 1226.87 236.051 1235.96 Q236.051 1244.84 233.794 1249.68 Q230.499 1256.74 223.225 1256.74 Q220.493 1256.74 217.703 1255.35 Q214.941 1253.95 213.19 1250.6 Q210.458 1245.58 210.458 1235.96 M215.505 1235.22 Q215.505 1244.39 216.159 1248.04 Q216.901 1251.99 218.92 1253.71 Q220.968 1255.41 223.225 1255.41 Q225.659 1255.41 227.678 1253.6 Q229.727 1251.75 230.35 1247.81 Q231.033 1243.92 231.004 1235.22 Q231.004 1226.76 230.41 1223.37 Q229.608 1219.42 227.47 1217.85 Q225.362 1216.25 223.225 1216.25 Q222.423 1216.25 221.562 1216.48 Q220.731 1216.72 219.514 1217.4 Q218.296 1218.09 217.346 1219.78 Q216.426 1221.47 215.981 1224.02 Q215.505 1227.32 215.505 1235.22 Z" fill="#000000" fill-rule="evenodd" fill-opacity="1" /><path clip-path="url(#clip970)" d="M 0 0 M244.572 1254.43 Q243.651 1253.45 243.651 1252.17 Q243.651 1250.89 244.572 1249.97 Q245.492 1249.02 246.888 1249.02 Q248.224 1249.02 249.114 1249.91 Q250.035 1250.78 250.035 1252.2 Q250.035 1253.6 249.055 1254.52 Q248.105 1255.41 246.888 1255.41 Q245.492 1255.41 244.572 1254.43 Z" fill="#000000" fill-rule="evenodd" fill-opacity="1" /><path clip-path="url(#clip970)" d="M 0 0 M258.407 1255.41 Q258.407 1254.31 258.496 1253.98 Q258.615 1253.66 259.09 1253.15 L270.758 1240.15 Q277.141 1232.96 277.141 1226.7 Q277.141 1222.63 275.004 1219.72 Q272.896 1216.81 269.006 1216.81 Q266.334 1216.81 264.078 1218.44 Q261.821 1220.08 260.782 1222.99 Q260.96 1222.93 261.584 1222.93 Q263.098 1222.93 263.929 1223.88 Q264.79 1224.83 264.79 1226.1 Q264.79 1227.74 263.722 1228.54 Q262.682 1229.31 261.643 1229.31 Q261.228 1229.31 260.664 1229.22 Q260.129 1229.13 259.268 1228.3 Q258.407 1227.44 258.407 1225.92 Q258.407 1221.68 261.614 1218.29 Q264.85 1214.91 269.778 1214.91 Q275.36 1214.91 279.012 1218.24 Q282.693 1221.53 282.693 1226.7 Q282.693 1228.51 282.129 1230.17 Q281.595 1231.8 280.853 1233.08 Q280.14 1234.36 278.181 1236.41 Q276.221 1238.45 274.647 1239.91 Q273.074 1241.36 269.541 1244.45 L263.098 1250.72 L274.054 1250.72 Q279.398 1250.72 279.813 1250.24 Q280.407 1249.38 281.149 1244.84 L282.693 1244.84 L280.971 1255.41 L258.407 1255.41 Z" fill="#000000" fill-rule="evenodd" fill-opacity="1" /><path clip-path="url(#clip970)" d="M 0 0 M209.122 979.96 Q209.122 971.023 211.379 966.154 Q214.526 958.91 221.948 958.91 Q223.522 958.91 225.155 959.355 Q226.817 959.771 228.896 961.404 Q231.004 963.037 232.28 965.709 Q234.715 970.875 234.715 979.96 Q234.715 988.837 232.458 993.677 Q229.163 1000.74 221.889 1000.74 Q219.157 1000.74 216.366 999.347 Q213.605 997.952 211.854 994.597 Q209.122 989.579 209.122 979.96 M214.169 979.218 Q214.169 988.392 214.823 992.044 Q215.565 995.992 217.584 997.714 Q219.632 999.407 221.889 999.407 Q224.323 999.407 226.342 997.596 Q228.391 995.755 229.014 991.806 Q229.697 987.917 229.667 979.218 Q229.667 970.756 229.074 967.371 Q228.272 963.423 226.134 961.849 Q224.026 960.246 221.889 960.246 Q221.087 960.246 220.226 960.483 Q219.395 960.721 218.178 961.404 Q216.96 962.087 216.01 963.779 Q215.09 965.471 214.644 968.025 Q214.169 971.32 214.169 979.218 Z" fill="#000000" fill-rule="evenodd" fill-opacity="1" /><path clip-path="url(#clip970)" d="M 0 0 M243.236 998.427 Q242.315 997.447 242.315 996.171 Q242.315 994.894 243.236 993.973 Q244.156 993.023 245.551 993.023 Q246.888 993.023 247.778 993.914 Q248.699 994.775 248.699 996.2 Q248.699 997.596 247.719 998.516 Q246.769 999.407 245.551 999.407 Q244.156 999.407 243.236 998.427 Z" fill="#000000" fill-rule="evenodd" fill-opacity="1" /><path clip-path="url(#clip970)" d="M 0 0 M255.735 989.372 L255.735 987.501 L274.41 958.969 Q274.885 958.227 275.627 958.257 Q276.31 958.257 276.459 958.524 Q276.607 958.791 276.607 959.83 L276.607 987.501 L282.693 987.501 L282.693 989.372 L276.607 989.372 L276.607 994.656 Q276.607 996.408 277.32 996.972 Q278.062 997.536 281.209 997.536 L282.486 997.536 L282.486 999.407 Q279.992 999.229 274.232 999.229 Q268.502 999.229 266.008 999.407 L266.008 997.536 L267.284 997.536 Q270.431 997.536 271.174 997.002 Q271.916 996.438 271.916 994.656 L271.916 989.372 L255.735 989.372 M257.457 987.501 L272.272 987.501 L272.272 964.818 L257.457 987.501 Z" fill="#000000" fill-rule="evenodd" fill-opacity="1" /><path clip-path="url(#clip970)" d="M 0 0 M209.983 723.96 Q209.983 715.023 212.24 710.154 Q215.387 702.91 222.809 702.91 Q224.383 702.91 226.016 703.355 Q227.678 703.771 229.757 705.404 Q231.865 707.037 233.141 709.709 Q235.576 714.875 235.576 723.96 Q235.576 732.837 233.319 737.677 Q230.024 744.743 222.75 744.743 Q220.018 744.743 217.227 743.347 Q214.466 741.952 212.715 738.597 Q209.983 733.579 209.983 723.96 M215.03 723.218 Q215.03 732.392 215.684 736.044 Q216.426 739.992 218.445 741.714 Q220.493 743.407 222.75 743.407 Q225.184 743.407 227.203 741.596 Q229.252 739.755 229.875 735.806 Q230.558 731.917 230.528 723.218 Q230.528 714.756 229.935 711.371 Q229.133 707.423 226.995 705.849 Q224.887 704.246 222.75 704.246 Q221.948 704.246 221.087 704.483 Q220.256 704.721 219.039 705.404 Q217.821 706.087 216.871 707.779 Q215.951 709.471 215.505 712.025 Q215.03 715.32 215.03 723.218 Z" fill="#000000" fill-rule="evenodd" fill-opacity="1" /><path clip-path="url(#clip970)" d="M 0 0 M244.097 742.427 Q243.176 741.447 243.176 740.171 Q243.176 738.894 244.097 737.973 Q245.017 737.023 246.412 737.023 Q247.749 737.023 248.639 737.914 Q249.56 738.775 249.56 740.2 Q249.56 741.596 248.58 742.516 Q247.63 743.407 246.412 743.407 Q245.017 743.407 244.097 742.427 Z" fill="#000000" fill-rule="evenodd" fill-opacity="1" /><path clip-path="url(#clip970)" d="M 0 0 M257.457 724.197 Q257.457 714.637 262.326 708.788 Q267.195 702.91 273.46 702.91 Q277.112 702.91 279.131 704.78 Q281.179 706.621 281.179 709.471 Q281.179 711.045 280.259 711.728 Q279.338 712.411 278.388 712.411 Q277.29 712.411 276.429 711.668 Q275.568 710.926 275.568 709.59 Q275.568 706.859 278.923 706.859 Q277.349 704.424 273.579 704.424 Q272.421 704.424 271.233 704.78 Q270.046 705.107 268.502 706.235 Q266.958 707.363 265.77 709.145 Q264.583 710.926 263.751 714.281 Q262.92 717.636 262.92 722 L262.92 723.455 Q265.414 717.428 270.521 717.458 Q275.627 717.458 279.16 721.347 Q282.693 725.237 282.693 730.996 Q282.693 736.905 279.012 740.824 Q275.33 744.743 270.164 744.743 Q267.848 744.743 265.741 743.763 Q263.662 742.813 261.703 740.616 Q259.773 738.419 258.615 734.203 Q257.457 729.987 257.457 724.197 M263.039 729.66 Q263.039 735.628 264.137 738.478 Q264.315 738.953 264.701 739.606 Q265.117 740.26 265.8 741.121 Q266.512 741.952 267.67 742.516 Q268.828 743.05 270.164 743.05 Q274.232 743.05 276.191 739.102 Q277.23 736.905 277.23 730.937 Q277.23 724.851 276.132 722.624 Q274.261 718.853 270.461 718.853 Q267.908 718.853 266.126 720.605 Q264.375 722.357 263.692 724.702 Q263.039 727.048 263.039 729.66 Z" fill="#000000" fill-rule="evenodd" fill-opacity="1" /><path clip-path="url(#clip970)" d="M 0 0 M209.983 467.96 Q209.983 459.023 212.24 454.154 Q215.387 446.91 222.809 446.91 Q224.383 446.91 226.016 447.355 Q227.678 447.771 229.757 449.404 Q231.865 451.037 233.141 453.709 Q235.576 458.875 235.576 467.96 Q235.576 476.837 233.319 481.677 Q230.024 488.743 222.75 488.743 Q220.018 488.743 217.227 487.347 Q214.466 485.952 212.715 482.597 Q209.983 477.579 209.983 467.96 M215.03 467.218 Q215.03 476.392 215.684 480.044 Q216.426 483.992 218.445 485.714 Q220.493 487.407 222.75 487.407 Q225.184 487.407 227.203 485.596 Q229.252 483.755 229.875 479.806 Q230.558 475.917 230.528 467.218 Q230.528 458.756 229.935 455.371 Q229.133 451.423 226.995 449.849 Q224.887 448.246 222.75 448.246 Q221.948 448.246 221.087 448.483 Q220.256 448.721 219.039 449.404 Q217.821 450.087 216.871 451.779 Q215.951 453.471 215.505 456.025 Q215.03 459.32 215.03 467.218 Z" fill="#000000" fill-rule="evenodd" fill-opacity="1" /><path clip-path="url(#clip970)" d="M 0 0 M244.097 486.427 Q243.176 485.447 243.176 484.171 Q243.176 482.894 244.097 481.973 Q245.017 481.023 246.412 481.023 Q247.749 481.023 248.639 481.914 Q249.56 482.775 249.56 484.2 Q249.56 485.596 248.58 486.516 Q247.63 487.407 246.412 487.407 Q245.017 487.407 244.097 486.427 Z" fill="#000000" fill-rule="evenodd" fill-opacity="1" /><path clip-path="url(#clip970)" d="M 0 0 M257.457 478.233 Q257.457 471.434 266.216 467.04 Q262.445 464.486 261.762 463.744 Q259.09 460.775 259.09 457.064 Q259.09 452.818 262.297 449.879 Q265.533 446.91 270.105 446.91 Q274.469 446.91 277.765 449.434 Q281.06 451.957 281.06 455.965 Q281.06 461.606 273.697 465.407 Q278.566 468.435 279.724 469.712 Q282.693 473.007 282.693 477.193 Q282.693 482.063 278.952 485.417 Q275.212 488.743 270.046 488.743 Q264.998 488.743 261.228 485.803 Q257.457 482.864 257.457 478.233 M260.485 478.233 Q260.485 482.003 263.306 484.527 Q266.156 487.05 270.105 487.05 Q273.935 487.05 276.785 484.853 Q279.665 482.656 279.665 479.39 Q279.665 478.114 279.22 477.015 Q278.804 475.917 277.943 475.056 Q277.112 474.165 276.577 473.779 Q276.073 473.363 275.093 472.681 L267.611 467.96 Q260.485 471.909 260.485 478.233 M261.762 454.689 Q261.762 457.598 264.82 459.617 L272.361 464.486 Q278.388 460.953 278.388 455.965 Q278.388 452.729 275.924 450.591 Q273.46 448.424 270.046 448.424 Q266.691 448.424 264.226 450.205 Q261.762 451.957 261.762 454.689 Z" fill="#000000" fill-rule="evenodd" fill-opacity="1" /><path clip-path="url(#clip970)" d="M 0 0 M212.833 196.699 L212.833 194.799 Q220.137 194.799 223.908 190.91 Q224.947 190.91 225.125 191.147 Q225.303 191.385 225.303 192.483 L225.303 226.597 Q225.303 228.408 226.194 228.972 Q227.084 229.536 230.974 229.536 L232.904 229.536 L232.904 231.407 Q230.766 231.229 223.047 231.229 Q215.327 231.229 213.219 231.407 L213.219 229.536 L215.149 229.536 Q218.979 229.536 219.9 229.002 Q220.82 228.438 220.82 226.597 L220.82 195.096 Q217.643 196.699 212.833 196.699 Z" fill="#000000" fill-rule="evenodd" fill-opacity="1" /><path clip-path="url(#clip970)" d="M 0 0 M243.919 230.427 Q242.998 229.447 242.998 228.171 Q242.998 226.894 243.919 225.973 Q244.839 225.023 246.234 225.023 Q247.57 225.023 248.461 225.914 Q249.381 226.775 249.381 228.2 Q249.381 229.596 248.402 230.516 Q247.452 231.407 246.234 231.407 Q244.839 231.407 243.919 230.427 Z" fill="#000000" fill-rule="evenodd" fill-opacity="1" /><path clip-path="url(#clip970)" d="M 0 0 M257.101 211.96 Q257.101 203.023 259.357 198.154 Q262.504 190.91 269.927 190.91 Q271.5 190.91 273.133 191.355 Q274.796 191.771 276.874 193.404 Q278.982 195.037 280.259 197.709 Q282.693 202.875 282.693 211.96 Q282.693 220.837 280.437 225.677 Q277.141 232.743 269.867 232.743 Q267.136 232.743 264.345 231.347 Q261.584 229.952 259.832 226.597 Q257.101 221.579 257.101 211.96 M262.148 211.218 Q262.148 220.392 262.801 224.044 Q263.543 227.992 265.562 229.714 Q267.611 231.407 269.867 231.407 Q272.302 231.407 274.321 229.596 Q276.369 227.755 276.993 223.806 Q277.676 219.917 277.646 211.218 Q277.646 202.756 277.052 199.371 Q276.251 195.423 274.113 193.849 Q272.005 192.246 269.867 192.246 Q269.066 192.246 268.205 192.483 Q267.373 192.721 266.156 193.404 Q264.939 194.087 263.989 195.779 Q263.068 197.471 262.623 200.025 Q262.148 203.32 262.148 211.218 Z" fill="#000000" fill-rule="evenodd" fill-opacity="1" /><polyline clip-path="url(#clip970)" style="stroke:#000000; stroke-width:3.6; stroke-opacity:1; fill:none" points="
  300,1495 300,1495 334.613,1495 300,1495 300,1443.8 317.307,1443.8 300,1443.8 300,1392.6 317.307,1392.6 300,1392.6 
  300,1341.4 317.307,1341.4 300,1341.4 300,1290.2 317.307,1290.2 300,1290.2 300,1239 334.613,1239 300,1239 300,1187.8 
  317.307,1187.8 300,1187.8 300,1136.6 317.307,1136.6 300,1136.6 300,1085.4 317.307,1085.4 300,1085.4 300,1034.2 317.307,1034.2 
  300,1034.2 300,983 334.613,983 300,983 300,931.8 317.307,931.8 300,931.8 300,880.6 317.307,880.6 300,880.6 
  300,829.4 317.307,829.4 300,829.4 300,778.2 317.307,778.2 300,778.2 300,727 334.613,727 300,727 300,675.8 
  317.307,675.8 300,675.8 300,624.6 317.307,624.6 300,624.6 300,573.4 317.307,573.4 300,573.4 300,522.2 317.307,522.2 
  300,522.2 300,471 334.613,471 300,471 300,419.8 317.307,419.8 300,419.8 300,368.6 317.307,368.6 300,368.6 
  300,317.4 317.307,317.4 300,317.4 300,266.2 317.307,266.2 300,266.2 300,215 334.613,215 300,215 
  
  "/>
<path clip-path="url(#clip970)" d="M 0 0 M964.717 1529.1 L964.717 1527.2 Q972.02 1527.2 975.791 1523.31 Q976.83 1523.31 977.008 1523.55 Q977.186 1523.79 977.186 1524.89 L977.186 1559 Q977.186 1560.81 978.077 1561.38 Q978.968 1561.94 982.857 1561.94 L984.787 1561.94 L984.787 1563.81 Q982.649 1563.63 974.93 1563.63 Q967.211 1563.63 965.103 1563.81 L965.103 1561.94 L967.033 1561.94 Q970.863 1561.94 971.783 1561.41 Q972.703 1560.84 972.703 1559 L972.703 1527.5 Q969.526 1529.1 964.717 1529.1 Z" fill="#000000" fill-rule="evenodd" fill-opacity="1" /><path clip-path="url(#clip970)" d="M 0 0 M992.091 1544.36 Q992.091 1535.43 994.347 1530.56 Q997.494 1523.31 1004.92 1523.31 Q1006.49 1523.31 1008.12 1523.76 Q1009.79 1524.18 1011.86 1525.81 Q1013.97 1527.44 1015.25 1530.11 Q1017.68 1535.28 1017.68 1544.36 Q1017.68 1553.24 1015.43 1558.08 Q1012.13 1565.15 1004.86 1565.15 Q1002.13 1565.15 999.335 1563.75 Q996.574 1562.36 994.822 1559 Q992.091 1553.98 992.091 1544.36 M997.138 1543.62 Q997.138 1552.8 997.791 1556.45 Q998.533 1560.4 1000.55 1562.12 Q1002.6 1563.81 1004.86 1563.81 Q1007.29 1563.81 1009.31 1562 Q1011.36 1560.16 1011.98 1556.21 Q1012.67 1552.32 1012.64 1543.62 Q1012.64 1535.16 1012.04 1531.78 Q1011.24 1527.83 1009.1 1526.25 Q1006.99 1524.65 1004.86 1524.65 Q1004.06 1524.65 1003.19 1524.89 Q1002.36 1525.13 1001.15 1525.81 Q999.929 1526.49 998.979 1528.18 Q998.058 1529.88 997.613 1532.43 Q997.138 1535.72 997.138 1543.62 Z" fill="#000000" fill-rule="evenodd" fill-opacity="1" /><path clip-path="url(#clip970)" d="M 0 0 M1731.53 1563.81 Q1731.53 1562.71 1731.62 1562.39 Q1731.74 1562.06 1732.21 1561.55 L1743.88 1548.55 Q1750.26 1541.37 1750.26 1535.1 Q1750.26 1531.03 1748.13 1528.12 Q1746.02 1525.21 1742.13 1525.21 Q1739.46 1525.21 1737.2 1526.85 Q1734.94 1528.48 1733.9 1531.39 Q1734.08 1531.33 1734.71 1531.33 Q1736.22 1531.33 1737.05 1532.28 Q1737.91 1533.23 1737.91 1534.51 Q1737.91 1536.14 1736.84 1536.94 Q1735.8 1537.71 1734.77 1537.71 Q1734.35 1537.71 1733.79 1537.62 Q1733.25 1537.54 1732.39 1536.7 Q1731.53 1535.84 1731.53 1534.33 Q1731.53 1530.08 1734.74 1526.7 Q1737.97 1523.31 1742.9 1523.31 Q1748.48 1523.31 1752.13 1526.64 Q1755.82 1529.94 1755.82 1535.1 Q1755.82 1536.91 1755.25 1538.57 Q1754.72 1540.21 1753.97 1541.48 Q1753.26 1542.76 1751.3 1544.81 Q1749.34 1546.86 1747.77 1548.31 Q1746.2 1549.77 1742.66 1552.86 L1736.22 1559.12 L1747.18 1559.12 Q1752.52 1559.12 1752.94 1558.65 Q1753.53 1557.78 1754.27 1553.24 L1755.82 1553.24 L1754.09 1563.81 L1731.53 1563.81 Z" fill="#000000" fill-rule="evenodd" fill-opacity="1" /><path clip-path="url(#clip970)" d="M 0 0 M1761.28 1544.36 Q1761.28 1535.43 1763.53 1530.56 Q1766.68 1523.31 1774.1 1523.31 Q1775.68 1523.31 1777.31 1523.76 Q1778.97 1524.18 1781.05 1525.81 Q1783.16 1527.44 1784.44 1530.11 Q1786.87 1535.28 1786.87 1544.36 Q1786.87 1553.24 1784.61 1558.08 Q1781.32 1565.15 1774.04 1565.15 Q1771.31 1565.15 1768.52 1563.75 Q1765.76 1562.36 1764.01 1559 Q1761.28 1553.98 1761.28 1544.36 M1766.33 1543.62 Q1766.33 1552.8 1766.98 1556.45 Q1767.72 1560.4 1769.74 1562.12 Q1771.79 1563.81 1774.04 1563.81 Q1776.48 1563.81 1778.5 1562 Q1780.55 1560.16 1781.17 1556.21 Q1781.85 1552.32 1781.82 1543.62 Q1781.82 1535.16 1781.23 1531.78 Q1780.43 1527.83 1778.29 1526.25 Q1776.18 1524.65 1774.04 1524.65 Q1773.24 1524.65 1772.38 1524.89 Q1771.55 1525.13 1770.33 1525.81 Q1769.12 1526.49 1768.17 1528.18 Q1767.25 1529.88 1766.8 1532.43 Q1766.33 1535.72 1766.33 1543.62 Z" fill="#000000" fill-rule="evenodd" fill-opacity="1" /><polyline clip-path="url(#clip970)" style="stroke:#000000; stroke-width:3.6; stroke-opacity:1; fill:none" points="
  300,1495 376.8,1495 376.8,1477.69 376.8,1495 530.4,1495 530.4,1477.69 530.4,1495 684,1495 684,1477.69 684,1495 
  837.6,1495 837.6,1477.69 837.6,1495 991.2,1495 991.2,1460.39 991.2,1495 1144.8,1495 1144.8,1477.69 1144.8,1495 1298.4,1495 
  1298.4,1477.69 1298.4,1495 1452,1495 1452,1477.69 1452,1495 1605.6,1495 1605.6,1477.69 1605.6,1495 1759.2,1495 1759.2,1460.39 
  1759.2,1495 1912.8,1495 1912.8,1477.69 1912.8,1495 2066.4,1495 2066.4,1477.69 2066.4,1495 2220,1495 2220,1477.69 2220,1495 
  
  "/>
<polyline clip-path="url(#clip970)" style="stroke:#000000; stroke-width:3.6; stroke-opacity:1; fill:none" points="
  2220,1495 2220,1495 2185.39,1495 2220,1495 2220,1443.8 2202.69,1443.8 2220,1443.8 2220,1392.6 2202.69,1392.6 2220,1392.6 
  2220,1341.4 2202.69,1341.4 2220,1341.4 2220,1290.2 2202.69,1290.2 2220,1290.2 2220,1239 2185.39,1239 2220,1239 2220,1187.8 
  2202.69,1187.8 2220,1187.8 2220,1136.6 2202.69,1136.6 2220,1136.6 2220,1085.4 2202.69,1085.4 2220,1085.4 2220,1034.2 2202.69,1034.2 
  2220,1034.2 2220,983 2185.39,983 2220,983 2220,931.8 2202.69,931.8 2220,931.8 2220,880.6 2202.69,880.6 2220,880.6 
  2220,829.4 2202.69,829.4 2220,829.4 2220,778.2 2202.69,778.2 2220,778.2 2220,727 2185.39,727 2220,727 2220,675.8 
  2202.69,675.8 2220,675.8 2220,624.6 2202.69,624.6 2220,624.6 2220,573.4 2202.69,573.4 2220,573.4 2220,522.2 2202.69,522.2 
  2220,522.2 2220,471 2185.39,471 2220,471 2220,419.8 2202.69,419.8 2220,419.8 2220,368.6 2202.69,368.6 2220,368.6 
  2220,317.4 2202.69,317.4 2220,317.4 2220,266.2 2202.69,266.2 2220,266.2 2220,215 2185.39,215 2220,215 
  
  "/>
<polyline clip-path="url(#clip970)" style="stroke:#000000; stroke-width:3.6; stroke-opacity:1; fill:none" points="
  300,215 376.8,215 376.8,232.307 376.8,215 530.4,215 530.4,232.307 530.4,215 684,215 684,232.307 684,215 
  837.6,215 837.6,232.307 837.6,215 991.2,215 991.2,249.613 991.2,215 1144.8,215 1144.8,232.307 1144.8,215 1298.4,215 
  1298.4,232.307 1298.4,215 1452,215 1452,232.307 1452,215 1605.6,215 1605.6,232.307 1605.6,215 1759.2,215 1759.2,249.613 
  1759.2,215 1912.8,215 1912.8,232.307 1912.8,215 2066.4,215 2066.4,232.307 2066.4,215 2220,215 2220,232.307 2220,215 
  
  "/>
<polyline clip-path="url(#clip972)" style="stroke:#00528a; stroke-width:3.6; stroke-opacity:1; fill:none" points="
  300,240.481 376.8,1340.77 453.6,1398.62 530.4,1404.25 607.2,1423.7 684,1428.94 760.8,1439.03 837.6,1443.48 914.4,1446.46 991.2,1452.41 
  1068,1454.53 1144.8,1459.23 1221.6,1464.2 1298.4,1494.26 1375.2,1494.35 1452,1494.57 1528.8,1494.77 1605.6,1494.88 1682.4,1494.9 1759.2,1494.91 
  1836,1494.92 1912.8,1494.93 1989.6,1494.93 2066.4,1494.94 2143.2,1494.96 2220,1494.96 
  "/>
<circle clip-path="url(#clip972)" cx="300" cy="240.481" r="21" fill="#00528a" fill-rule="evenodd" fill-opacity="1" stroke="#ffffff" stroke-opacity="1" stroke-width="3.6"/>
<circle clip-path="url(#clip972)" cx="376.8" cy="1340.77" r="21" fill="#00528a" fill-rule="evenodd" fill-opacity="1" stroke="#ffffff" stroke-opacity="1" stroke-width="3.6"/>
<circle clip-path="url(#clip972)" cx="453.6" cy="1398.62" r="21" fill="#00528a" fill-rule="evenodd" fill-opacity="1" stroke="#ffffff" stroke-opacity="1" stroke-width="3.6"/>
<circle clip-path="url(#clip972)" cx="530.4" cy="1404.25" r="21" fill="#00528a" fill-rule="evenodd" fill-opacity="1" stroke="#ffffff" stroke-opacity="1" stroke-width="3.6"/>
<circle clip-path="url(#clip972)" cx="607.2" cy="1423.7" r="21" fill="#00528a" fill-rule="evenodd" fill-opacity="1" stroke="#ffffff" stroke-opacity="1" stroke-width="3.6"/>
<circle clip-path="url(#clip972)" cx="684" cy="1428.94" r="21" fill="#00528a" fill-rule="evenodd" fill-opacity="1" stroke="#ffffff" stroke-opacity="1" stroke-width="3.6"/>
<circle clip-path="url(#clip972)" cx="760.8" cy="1439.03" r="21" fill="#00528a" fill-rule="evenodd" fill-opacity="1" stroke="#ffffff" stroke-opacity="1" stroke-width="3.6"/>
<circle clip-path="url(#clip972)" cx="837.6" cy="1443.48" r="21" fill="#00528a" fill-rule="evenodd" fill-opacity="1" stroke="#ffffff" stroke-opacity="1" stroke-width="3.6"/>
<circle clip-path="url(#clip972)" cx="914.4" cy="1446.46" r="21" fill="#00528a" fill-rule="evenodd" fill-opacity="1" stroke="#ffffff" stroke-opacity="1" stroke-width="3.6"/>
<circle clip-path="url(#clip972)" cx="991.2" cy="1452.41" r="21" fill="#00528a" fill-rule="evenodd" fill-opacity="1" stroke="#ffffff" stroke-opacity="1" stroke-width="3.6"/>
<circle clip-path="url(#clip972)" cx="1068" cy="1454.53" r="21" fill="#00528a" fill-rule="evenodd" fill-opacity="1" stroke="#ffffff" stroke-opacity="1" stroke-width="3.6"/>
<circle clip-path="url(#clip972)" cx="1144.8" cy="1459.23" r="21" fill="#00528a" fill-rule="evenodd" fill-opacity="1" stroke="#ffffff" stroke-opacity="1" stroke-width="3.6"/>
<circle clip-path="url(#clip972)" cx="1221.6" cy="1464.2" r="21" fill="#00528a" fill-rule="evenodd" fill-opacity="1" stroke="#ffffff" stroke-opacity="1" stroke-width="3.6"/>
<circle clip-path="url(#clip972)" cx="1298.4" cy="1494.26" r="21" fill="#00528a" fill-rule="evenodd" fill-opacity="1" stroke="#ffffff" stroke-opacity="1" stroke-width="3.6"/>
<circle clip-path="url(#clip972)" cx="1375.2" cy="1494.35" r="21" fill="#00528a" fill-rule="evenodd" fill-opacity="1" stroke="#ffffff" stroke-opacity="1" stroke-width="3.6"/>
<circle clip-path="url(#clip972)" cx="1452" cy="1494.57" r="21" fill="#00528a" fill-rule="evenodd" fill-opacity="1" stroke="#ffffff" stroke-opacity="1" stroke-width="3.6"/>
<circle clip-path="url(#clip972)" cx="1528.8" cy="1494.77" r="21" fill="#00528a" fill-rule="evenodd" fill-opacity="1" stroke="#ffffff" stroke-opacity="1" stroke-width="3.6"/>
<circle clip-path="url(#clip972)" cx="1605.6" cy="1494.88" r="21" fill="#00528a" fill-rule="evenodd" fill-opacity="1" stroke="#ffffff" stroke-opacity="1" stroke-width="3.6"/>
<circle clip-path="url(#clip972)" cx="1682.4" cy="1494.9" r="21" fill="#00528a" fill-rule="evenodd" fill-opacity="1" stroke="#ffffff" stroke-opacity="1" stroke-width="3.6"/>
<circle clip-path="url(#clip972)" cx="1759.2" cy="1494.91" r="21" fill="#00528a" fill-rule="evenodd" fill-opacity="1" stroke="#ffffff" stroke-opacity="1" stroke-width="3.6"/>
<circle clip-path="url(#clip972)" cx="1836" cy="1494.92" r="21" fill="#00528a" fill-rule="evenodd" fill-opacity="1" stroke="#ffffff" stroke-opacity="1" stroke-width="3.6"/>
<circle clip-path="url(#clip972)" cx="1912.8" cy="1494.93" r="21" fill="#00528a" fill-rule="evenodd" fill-opacity="1" stroke="#ffffff" stroke-opacity="1" stroke-width="3.6"/>
<circle clip-path="url(#clip972)" cx="1989.6" cy="1494.93" r="21" fill="#00528a" fill-rule="evenodd" fill-opacity="1" stroke="#ffffff" stroke-opacity="1" stroke-width="3.6"/>
<circle clip-path="url(#clip972)" cx="2066.4" cy="1494.94" r="21" fill="#00528a" fill-rule="evenodd" fill-opacity="1" stroke="#ffffff" stroke-opacity="1" stroke-width="3.6"/>
<circle clip-path="url(#clip972)" cx="2143.2" cy="1494.96" r="21" fill="#00528a" fill-rule="evenodd" fill-opacity="1" stroke="#ffffff" stroke-opacity="1" stroke-width="3.6"/>
<circle clip-path="url(#clip972)" cx="2220" cy="1494.96" r="21" fill="#00528a" fill-rule="evenodd" fill-opacity="1" stroke="#ffffff" stroke-opacity="1" stroke-width="3.6"/>
<path clip-path="url(#clip970)" d="M 0 0 M1128 49.7244 L1128 37.5516 Q1128 36.8687 1128.03 36.6312 Q1128.06 36.3937 1128.24 36.2155 Q1128.42 36.0374 1128.77 36.0374 Q1129.45 36.0374 1129.51 36.6609 Q1129.69 42.6879 1133.28 46.0132 Q1136.82 49.3087 1142.87 49.3087 Q1146.53 49.3087 1148.78 46.696 Q1151.04 44.0536 1151.04 40.6096 Q1151.04 37.3141 1149.14 34.9983 Q1148.34 33.9591 1147.33 33.306 Q1146.35 32.6231 1145.72 32.4153 Q1145.13 32.2074 1143.97 31.9105 Q1136.43 30.0995 1135.96 29.8916 Q1132.36 28.6744 1130.17 25.6163 Q1128 22.5286 1128 18.758 Q1128 13.8889 1131.41 10.4449 Q1134.86 6.97115 1139.85 6.97115 Q1142.34 6.97115 1144.42 7.77277 Q1146.53 8.54471 1147.39 9.25726 Q1148.25 9.96982 1149.58 11.2465 L1151.69 7.77277 Q1152.17 6.97115 1152.61 6.97115 Q1153.09 6.97115 1153.18 7.26805 Q1153.3 7.53526 1153.3 8.42595 L1153.3 20.6581 Q1153.3 21.341 1153.27 21.5785 Q1153.24 21.816 1153.03 21.9645 Q1152.85 22.1129 1152.49 22.1129 Q1151.9 22.1129 1151.75 21.4004 Q1150.06 8.69316 1139.9 8.69316 Q1136.43 8.69316 1134.15 11.0386 Q1131.89 13.3544 1131.89 16.65 Q1131.89 19.3221 1133.55 21.5191 Q1135.21 23.6865 1138.03 24.3693 L1145.81 26.2398 Q1149.7 27.1602 1152.32 30.6042 Q1154.93 34.0482 1154.93 38.5313 Q1154.93 43.6974 1151.54 47.4383 Q1148.19 51.1792 1142.93 51.1792 Q1139.16 51.1792 1136.25 49.9322 Q1133.34 48.6852 1131.77 46.9335 Q1130.55 48.9524 1129.75 50.0807 L1129.57 50.3776 Q1129.1 51.1792 1128.65 51.1792 Q1128.18 51.1792 1128.09 50.8823 Q1128 50.5854 1128 49.7244 Z" fill="#000000" fill-rule="evenodd" fill-opacity="1" /><path clip-path="url(#clip970)" d="M 0 0 M1164.25 46.5179 Q1160.39 42.4801 1160.39 36.7203 Q1160.39 30.9308 1164.19 26.7742 Q1167.99 22.588 1173.57 22.588 Q1177.28 22.588 1180.08 24.3693 Q1182.87 26.121 1182.87 29.1197 Q1182.87 30.4557 1182.06 31.2277 Q1181.29 31.9699 1180.08 31.9699 Q1178.8 31.9699 1178.03 31.198 Q1177.28 30.3964 1177.28 29.1791 Q1177.28 28.6447 1177.46 28.1102 Q1177.64 27.5758 1178.29 27.0117 Q1178.98 26.4476 1180.13 26.3586 Q1177.97 24.1318 1173.75 24.1318 Q1173.69 24.1318 1173.63 24.1318 Q1170.54 24.1318 1167.99 27.0414 Q1165.44 29.951 1165.44 36.6015 Q1165.44 40.0752 1166.27 42.6285 Q1167.13 45.1522 1168.53 46.4585 Q1169.92 47.7649 1171.29 48.3883 Q1172.65 48.9821 1173.99 48.9821 Q1179.96 48.9821 1181.98 42.5988 Q1182.15 42.005 1182.75 42.005 Q1183.55 42.005 1183.55 42.5988 Q1183.55 42.8957 1183.31 43.6677 Q1183.07 44.4396 1182.33 45.6569 Q1181.59 46.8742 1180.52 47.943 Q1179.48 48.9821 1177.61 49.7541 Q1175.77 50.526 1173.45 50.526 Q1168.11 50.526 1164.25 46.5179 Z" fill="#000000" fill-rule="evenodd" fill-opacity="1" /><path clip-path="url(#clip970)" d="M 0 0 M1186.99 49.8431 L1186.99 47.9727 Q1190.23 47.9727 1190.97 47.5867 Q1191.74 47.1711 1191.74 45.2115 L1191.74 28.9119 Q1191.74 26.6555 1190.94 26.0913 Q1190.17 25.5272 1186.99 25.5272 L1186.99 23.6271 L1195.45 22.9739 L1195.45 29.6541 Q1196.32 27.0414 1198.13 25.0225 Q1199.97 22.9739 1202.94 22.9739 Q1204.9 22.9739 1206.14 24.0724 Q1207.42 25.171 1207.42 26.6851 Q1207.42 28.0212 1206.59 28.704 Q1205.79 29.3572 1204.81 29.3572 Q1203.71 29.3572 1202.94 28.6744 Q1202.19 27.9618 1202.19 26.7445 Q1202.19 26.0023 1202.52 25.4382 Q1202.88 24.8444 1203.14 24.6365 Q1203.41 24.4287 1203.59 24.3693 Q1203.47 24.31 1202.94 24.31 Q1199.58 24.31 1197.65 27.6649 Q1195.75 30.9902 1195.75 35.7405 L1195.75 45.0928 Q1195.75 46.8445 1196.46 47.4086 Q1197.21 47.9727 1200.38 47.9727 L1201.66 47.9727 L1201.66 49.8431 Q1199.23 49.665 1193.94 49.665 Q1193.2 49.665 1192.04 49.6947 Q1190.88 49.7244 1189.37 49.7838 Q1187.85 49.8431 1186.99 49.8431 Z" fill="#000000" fill-rule="evenodd" fill-opacity="1" /><path clip-path="url(#clip970)" d="M 0 0 M1210.74 36.4531 Q1210.74 30.7229 1214.43 26.6555 Q1218.11 22.588 1223.39 22.588 Q1228.74 22.588 1231.5 26.0617 Q1234.29 29.5354 1234.29 34.5232 Q1234.29 35.4436 1234.05 35.6218 Q1233.81 35.7999 1232.77 35.7999 L1215.79 35.7999 Q1215.79 42.005 1217.63 44.9146 Q1220.19 48.9821 1224.49 48.9821 Q1225.08 48.9821 1225.8 48.8634 Q1226.51 48.7446 1227.96 48.2399 Q1229.42 47.7055 1230.7 46.3101 Q1231.97 44.9146 1232.72 42.7176 Q1232.89 41.8566 1233.49 41.8863 Q1234.29 41.8863 1234.29 42.5988 Q1234.29 43.1333 1233.69 44.3505 Q1233.13 45.5381 1232.03 46.9632 Q1230.93 48.3883 1228.8 49.4572 Q1226.69 50.526 1224.13 50.526 Q1218.79 50.526 1214.75 46.4882 Q1210.74 42.4207 1210.74 36.4531 M1215.85 34.5232 L1230.28 34.5232 Q1230.28 33.2466 1230.04 31.8215 Q1229.84 30.3964 1229.18 28.4368 Q1228.56 26.4476 1227.07 25.2007 Q1225.59 23.9537 1223.39 23.9537 Q1222.41 23.9537 1221.34 24.3693 Q1220.3 24.785 1219.03 25.7944 Q1217.75 26.8039 1216.86 29.09 Q1215.97 31.3761 1215.85 34.5232 Z" fill="#000000" fill-rule="evenodd" fill-opacity="1" /><path clip-path="url(#clip970)" d="M 0 0 M1237.73 36.4531 Q1237.73 30.7229 1241.41 26.6555 Q1245.1 22.588 1250.38 22.588 Q1255.72 22.588 1258.49 26.0617 Q1261.28 29.5354 1261.28 34.5232 Q1261.28 35.4436 1261.04 35.6218 Q1260.8 35.7999 1259.76 35.7999 L1242.78 35.7999 Q1242.78 42.005 1244.62 44.9146 Q1247.17 48.9821 1251.48 48.9821 Q1252.07 48.9821 1252.79 48.8634 Q1253.5 48.7446 1254.95 48.2399 Q1256.41 47.7055 1257.68 46.3101 Q1258.96 44.9146 1259.7 42.7176 Q1259.88 41.8566 1260.48 41.8863 Q1261.28 41.8863 1261.28 42.5988 Q1261.28 43.1333 1260.68 44.3505 Q1260.12 45.5381 1259.02 46.9632 Q1257.92 48.3883 1255.78 49.4572 Q1253.68 50.526 1251.12 50.526 Q1245.78 50.526 1241.74 46.4882 Q1237.73 42.4207 1237.73 36.4531 M1242.84 34.5232 L1257.27 34.5232 Q1257.27 33.2466 1257.03 31.8215 Q1256.82 30.3964 1256.17 28.4368 Q1255.55 26.4476 1254.06 25.2007 Q1252.58 23.9537 1250.38 23.9537 Q1249.4 23.9537 1248.33 24.3693 Q1247.29 24.785 1246.02 25.7944 Q1244.74 26.8039 1243.85 29.09 Q1242.96 31.3761 1242.84 34.5232 Z" fill="#000000" fill-rule="evenodd" fill-opacity="1" /><path clip-path="url(#clip970)" d="M 0 0 M1285.38 49.8431 L1285.38 47.9727 L1286.84 47.9727 Q1290.14 47.9727 1290.88 47.4383 Q1291.65 46.8742 1291.65 45.0928 L1291.65 13.0575 Q1291.65 11.3059 1290.88 10.7714 Q1290.11 10.2073 1286.84 10.2073 L1285.38 10.2073 L1285.38 8.30719 L1306.85 8.30719 Q1313 8.30719 1317.09 11.6918 Q1321.19 15.0765 1321.19 19.619 Q1321.19 24.1318 1317 27.3977 Q1312.85 30.6339 1307.33 30.6339 L1297.05 30.6339 L1297.05 45.0928 Q1297.05 46.8445 1297.8 47.4086 Q1298.57 47.9727 1301.86 47.9727 L1303.32 47.9727 L1303.32 49.8431 Q1301.18 49.665 1294.32 49.665 Q1287.52 49.665 1285.38 49.8431 M1296.87 29.0603 L1305.25 29.0603 Q1307.98 29.0603 1309.97 28.2884 Q1311.96 27.5165 1312.85 26.5961 Q1313.77 25.646 1314.27 24.1318 Q1314.81 22.588 1314.87 21.7566 Q1314.93 20.8956 1314.93 19.619 Q1314.93 18.2829 1314.87 17.4516 Q1314.81 16.5906 1314.27 15.0765 Q1313.77 13.5326 1312.85 12.6122 Q1311.96 11.6621 1309.97 10.9496 Q1308.01 10.2073 1305.25 10.2073 L1299.84 10.2073 Q1297.77 10.2073 1297.32 10.623 Q1296.87 11.0386 1296.87 12.6419 L1296.87 29.0603 Z" fill="#000000" fill-rule="evenodd" fill-opacity="1" /><path clip-path="url(#clip970)" d="M 0 0 M1326.59 49.8431 L1326.59 47.9727 Q1329.83 47.9727 1330.57 47.5867 Q1331.31 47.1711 1331.31 45.2115 L1331.31 13.592 Q1331.31 11.3355 1330.51 10.7714 Q1329.74 10.2073 1326.59 10.2073 L1326.59 8.30719 L1335.32 7.65402 L1335.32 45.2115 Q1335.32 47.1711 1336.09 47.5867 Q1336.87 47.9727 1340.07 47.9727 L1340.07 49.8431 Q1339.33 49.8431 1337.79 49.7838 Q1336.24 49.7244 1335.12 49.6947 Q1333.99 49.665 1333.33 49.665 Q1332.62 49.665 1326.59 49.8431 Z" fill="#000000" fill-rule="evenodd" fill-opacity="1" /><path clip-path="url(#clip970)" d="M 0 0 M1347.11 46.5773 Q1343.1 42.5988 1343.1 36.839 Q1343.1 31.0495 1347.02 26.8336 Q1350.97 22.588 1356.61 22.588 Q1362.13 22.588 1366.08 26.8039 Q1370.06 30.9902 1370.06 36.839 Q1370.06 42.5692 1366.05 46.5476 Q1362.07 50.526 1356.55 50.526 Q1351.15 50.526 1347.11 46.5773 M1348.15 36.3343 Q1348.15 42.2426 1349.69 44.9146 Q1352.07 48.9821 1356.61 48.9821 Q1358.87 48.9821 1360.74 47.7649 Q1362.64 46.5476 1363.68 44.499 Q1365.01 41.8269 1365.01 36.3343 Q1365.01 30.4854 1363.41 27.9024 Q1361.03 23.9537 1356.55 23.9537 Q1354.59 23.9537 1352.66 24.9928 Q1350.76 26.0023 1349.6 28.0212 Q1348.15 30.6933 1348.15 36.3343 Z" fill="#000000" fill-rule="evenodd" fill-opacity="1" /><path clip-path="url(#clip970)" d="M 0 0 M1372.97 25.5272 L1372.97 24.1912 Q1375.76 24.0724 1377.6 22.1129 Q1379.47 20.1237 1380.1 17.6891 Q1380.75 15.2546 1380.81 12.4341 L1382.32 12.4341 L1382.32 23.6271 L1391.02 23.6271 L1391.02 25.5272 L1382.32 25.5272 L1382.32 42.4207 Q1382.32 48.9821 1386.42 48.9821 Q1388.17 48.9821 1389.33 47.2008 Q1390.49 45.3897 1390.49 42.1832 L1390.49 38.8282 L1392 38.8282 L1392 42.3019 Q1392 45.5975 1390.49 48.0618 Q1388.97 50.526 1385.97 50.526 Q1384.88 50.526 1383.78 50.2291 Q1382.71 49.9619 1381.28 49.2493 Q1379.89 48.5071 1379 46.7257 Q1378.14 44.9146 1378.14 42.3019 L1378.14 25.5272 L1372.97 25.5272 Z" fill="#000000" fill-rule="evenodd" fill-opacity="1" /><path clip-path="url(#clip970)" d="M 0 0 M1012.43 1766.65 L1012.43 1754.48 Q1012.43 1753.8 1012.46 1753.56 Q1012.49 1753.32 1012.67 1753.14 Q1012.85 1752.97 1013.2 1752.97 Q1013.89 1752.97 1013.95 1753.59 Q1014.12 1759.62 1017.72 1762.94 Q1021.25 1766.24 1027.31 1766.24 Q1030.96 1766.24 1033.21 1763.62 Q1035.47 1760.98 1035.47 1757.54 Q1035.47 1754.24 1033.57 1751.93 Q1032.77 1750.89 1031.76 1750.23 Q1030.78 1749.55 1030.16 1749.34 Q1029.56 1749.14 1028.41 1748.84 Q1020.86 1747.03 1020.39 1746.82 Q1016.8 1745.6 1014.6 1742.54 Q1012.43 1739.46 1012.43 1735.69 Q1012.43 1730.82 1015.85 1727.37 Q1019.29 1723.9 1024.28 1723.9 Q1026.77 1723.9 1028.85 1724.7 Q1030.96 1725.47 1031.82 1726.19 Q1032.68 1726.9 1034.02 1728.17 L1036.12 1724.7 Q1036.6 1723.9 1037.04 1723.9 Q1037.52 1723.9 1037.61 1724.2 Q1037.73 1724.46 1037.73 1725.35 L1037.73 1737.59 Q1037.73 1738.27 1037.7 1738.51 Q1037.67 1738.74 1037.46 1738.89 Q1037.28 1739.04 1036.93 1739.04 Q1036.33 1739.04 1036.18 1738.33 Q1034.49 1725.62 1024.34 1725.62 Q1020.86 1725.62 1018.58 1727.97 Q1016.32 1730.28 1016.32 1733.58 Q1016.32 1736.25 1017.98 1738.45 Q1019.65 1740.61 1022.47 1741.3 L1030.25 1743.17 Q1034.14 1744.09 1036.75 1747.53 Q1039.36 1750.98 1039.36 1755.46 Q1039.36 1760.63 1035.98 1764.37 Q1032.62 1768.11 1027.37 1768.11 Q1023.6 1768.11 1020.69 1766.86 Q1017.78 1765.61 1016.2 1763.86 Q1014.99 1765.88 1014.18 1767.01 L1014.01 1767.31 Q1013.53 1768.11 1013.09 1768.11 Q1012.61 1768.11 1012.52 1767.81 Q1012.43 1767.51 1012.43 1766.65 Z" fill="#000000" fill-rule="evenodd" fill-opacity="1" /><path clip-path="url(#clip970)" d="M 0 0 M1044.76 1766.77 L1044.76 1764.9 Q1048 1764.9 1048.74 1764.51 Q1049.48 1764.1 1049.48 1762.14 L1049.48 1745.78 Q1049.48 1743.52 1048.71 1742.99 Q1047.97 1742.46 1045 1742.46 L1045 1740.56 L1053.49 1739.9 L1053.49 1762.2 Q1053.49 1764.01 1054.15 1764.46 Q1054.8 1764.9 1057.77 1764.9 L1057.77 1766.77 Q1051.56 1766.59 1051.44 1766.59 Q1050.61 1766.59 1044.76 1766.77 M1047.32 1729.3 Q1047.32 1728.09 1048.24 1727.11 Q1049.19 1726.1 1050.52 1726.1 Q1051.86 1726.1 1052.81 1727.02 Q1053.76 1727.91 1053.76 1729.33 Q1053.76 1730.73 1052.81 1731.65 Q1051.86 1732.54 1050.52 1732.54 Q1049.13 1732.54 1048.21 1731.56 Q1047.32 1730.58 1047.32 1729.3 Z" fill="#000000" fill-rule="evenodd" fill-opacity="1" /><path clip-path="url(#clip970)" d="M 0 0 M1061.54 1766.77 L1061.54 1764.9 Q1064.78 1764.9 1065.52 1764.51 Q1066.26 1764.1 1066.26 1762.14 L1066.26 1745.84 Q1066.26 1743.58 1065.46 1743.02 Q1064.69 1742.46 1061.54 1742.46 L1061.54 1740.56 L1070.09 1739.9 L1070.09 1746.29 Q1072.94 1739.9 1079.09 1739.9 Q1083.66 1739.9 1085.47 1742.16 Q1086.8 1743.67 1087.07 1745.36 Q1087.37 1747.06 1087.37 1751.45 L1087.37 1763.06 Q1087.43 1764.34 1088.41 1764.63 Q1089.39 1764.9 1092.12 1764.9 L1092.12 1766.77 Q1085.91 1766.59 1085.29 1766.59 Q1084.82 1766.59 1078.43 1766.77 L1078.43 1764.9 Q1081.67 1764.9 1082.41 1764.51 Q1083.18 1764.1 1083.18 1762.14 L1083.18 1747.98 Q1083.18 1744.89 1082.23 1743.08 Q1081.28 1741.24 1078.67 1741.24 Q1075.52 1741.24 1073 1743.88 Q1070.48 1746.52 1070.48 1750.98 L1070.48 1762.14 Q1070.48 1764.1 1071.22 1764.51 Q1071.99 1764.9 1075.2 1764.9 L1075.2 1766.77 Q1068.99 1766.59 1068.4 1766.59 Q1067.92 1766.59 1061.54 1766.77 Z" fill="#000000" fill-rule="evenodd" fill-opacity="1" /><path clip-path="url(#clip970)" d="M 0 0 M1095 1771.58 Q1095 1769.62 1096.48 1767.93 Q1098 1766.24 1100.61 1765.49 Q1097.94 1763.8 1097.94 1760.09 Q1097.94 1757.24 1099.81 1755.04 Q1096.96 1752.67 1096.96 1748.78 Q1096.96 1745.19 1099.81 1742.54 Q1102.66 1739.9 1106.82 1739.9 Q1110.47 1739.9 1113.26 1742.1 Q1116.17 1739.25 1119.7 1739.22 Q1121.27 1739.22 1122.02 1740.2 Q1122.79 1741.18 1122.79 1742.22 Q1122.79 1743.14 1122.2 1743.58 Q1121.63 1744.03 1121.04 1744.03 Q1120.29 1744.03 1119.76 1743.55 Q1119.26 1743.05 1119.26 1742.28 Q1119.26 1741 1120.24 1740.61 Q1120.06 1740.56 1119.64 1740.56 Q1116.67 1740.56 1114.15 1742.93 Q1116.64 1745.25 1116.64 1748.84 Q1116.64 1752.43 1113.79 1755.07 Q1110.94 1757.72 1106.82 1757.72 Q1103.4 1757.72 1100.79 1755.82 Q1099.75 1757.03 1099.75 1758.7 Q1099.75 1760.21 1100.67 1761.4 Q1101.59 1762.58 1102.99 1762.76 Q1103.4 1762.82 1107.53 1762.82 Q1109.96 1762.82 1111.3 1762.88 Q1112.63 1762.94 1114.54 1763.36 Q1116.46 1763.74 1117.98 1764.51 Q1121.93 1766.71 1121.96 1771.46 Q1121.96 1774.94 1117.95 1777.1 Q1113.97 1779.3 1108.45 1779.3 Q1102.87 1779.3 1098.92 1777.07 Q1095 1774.88 1095 1771.58 M1098.18 1771.58 Q1098.18 1774.07 1101.12 1775.98 Q1104.05 1777.9 1108.51 1777.9 Q1112.87 1777.9 1115.81 1776 Q1118.78 1774.13 1118.78 1771.58 Q1118.78 1769.77 1117.74 1768.61 Q1116.7 1767.45 1114.56 1766.98 Q1112.46 1766.53 1110.97 1766.44 Q1109.49 1766.36 1106.76 1766.36 L1103.16 1766.36 Q1101.09 1766.47 1099.63 1767.99 Q1098.18 1769.5 1098.18 1771.58 M1101.5 1748.84 Q1101.5 1756.32 1106.82 1756.32 Q1109.49 1756.32 1111.12 1753.89 Q1112.1 1752.25 1112.1 1748.78 Q1112.1 1741.3 1106.82 1741.3 Q1104.14 1741.3 1102.48 1743.73 Q1101.5 1745.36 1101.5 1748.84 Z" fill="#000000" fill-rule="evenodd" fill-opacity="1" /><path clip-path="url(#clip970)" d="M 0 0 M1125.67 1742.46 L1125.67 1740.56 L1134.61 1739.9 L1134.61 1760.09 Q1134.61 1761.55 1134.72 1762.41 Q1134.84 1763.24 1135.32 1764.22 Q1135.82 1765.2 1136.95 1765.64 Q1138.11 1766.09 1139.95 1766.09 Q1143.25 1766.09 1145.26 1763.39 Q1147.31 1760.68 1147.31 1756.68 L1147.31 1745.84 Q1147.31 1743.58 1146.51 1743.02 Q1145.71 1742.46 1142.56 1742.46 L1142.56 1740.56 L1151.5 1739.9 L1151.5 1761.49 Q1151.5 1763.74 1152.27 1764.34 Q1153.07 1764.9 1156.25 1764.9 L1156.25 1766.77 L1147.49 1767.45 L1147.49 1761.96 Q1144.94 1767.42 1139.65 1767.45 Q1136.98 1767.45 1135.14 1766.77 Q1133.33 1766.09 1132.41 1765.26 Q1131.49 1764.4 1130.98 1762.76 Q1130.51 1761.13 1130.45 1760.12 Q1130.39 1759.11 1130.39 1757.15 L1130.39 1748.04 Q1130.39 1743.91 1129.8 1743.2 Q1129.2 1742.46 1125.67 1742.46 Z" fill="#000000" fill-rule="evenodd" fill-opacity="1" /><path clip-path="url(#clip970)" d="M 0 0 M1159.46 1766.77 L1159.46 1764.9 Q1162.69 1764.9 1163.43 1764.51 Q1164.18 1764.1 1164.18 1762.14 L1164.18 1730.52 Q1164.18 1728.26 1163.37 1727.7 Q1162.6 1727.14 1159.46 1727.14 L1159.46 1725.24 L1168.18 1724.58 L1168.18 1762.14 Q1168.18 1764.1 1168.96 1764.51 Q1169.73 1764.9 1172.93 1764.9 L1172.93 1766.77 Q1172.19 1766.77 1170.65 1766.71 Q1169.1 1766.65 1167.98 1766.62 Q1166.85 1766.59 1166.2 1766.59 Q1165.48 1766.59 1159.46 1766.77 Z" fill="#000000" fill-rule="evenodd" fill-opacity="1" /><path clip-path="url(#clip970)" d="M 0 0 M1176.82 1760.98 Q1176.82 1755.82 1182.91 1753.08 Q1186.56 1751.33 1194.1 1750.89 L1194.1 1748.66 Q1194.1 1744.89 1192.11 1742.9 Q1190.15 1740.88 1187.66 1740.88 Q1183.21 1740.88 1181.07 1743.67 Q1182.88 1743.73 1183.53 1744.65 Q1184.19 1745.54 1184.19 1746.46 Q1184.19 1747.68 1183.42 1748.48 Q1182.67 1749.25 1181.4 1749.25 Q1180.18 1749.25 1179.38 1748.51 Q1178.58 1747.74 1178.58 1746.4 Q1178.58 1743.44 1181.25 1741.48 Q1183.95 1739.52 1187.78 1739.52 Q1192.77 1739.52 1196.09 1742.87 Q1197.13 1743.91 1197.64 1745.25 Q1198.17 1746.58 1198.23 1747.47 Q1198.29 1748.33 1198.29 1750.06 L1198.29 1762.2 Q1198.29 1762.56 1198.41 1763.15 Q1198.53 1763.74 1199.06 1764.51 Q1199.63 1765.26 1200.55 1765.26 Q1202.74 1765.26 1202.71 1761.37 L1202.71 1757.95 L1204.26 1757.95 L1204.26 1761.37 Q1204.26 1764.6 1202.54 1765.88 Q1200.84 1767.13 1199.27 1767.13 Q1197.25 1767.13 1195.97 1765.64 Q1194.7 1764.16 1194.52 1762.14 Q1193.6 1764.46 1191.49 1765.97 Q1189.41 1767.45 1186.56 1767.45 Q1184.37 1767.45 1182.29 1766.89 Q1180.24 1766.36 1178.52 1764.84 Q1176.82 1763.3 1176.82 1760.98 M1181.52 1760.92 Q1181.52 1763.18 1183.12 1764.63 Q1184.72 1766.09 1186.98 1766.09 Q1189.53 1766.09 1191.82 1764.13 Q1194.1 1762.14 1194.1 1758.25 L1194.1 1752.16 Q1187.36 1752.4 1184.42 1755.1 Q1181.52 1757.78 1181.52 1760.92 Z" fill="#000000" fill-rule="evenodd" fill-opacity="1" /><path clip-path="url(#clip970)" d="M 0 0 M1206.37 1766.77 L1206.37 1764.9 Q1209.6 1764.9 1210.34 1764.51 Q1211.12 1764.1 1211.12 1762.14 L1211.12 1745.84 Q1211.12 1743.58 1210.31 1743.02 Q1209.54 1742.46 1206.37 1742.46 L1206.37 1740.56 L1214.83 1739.9 L1214.83 1746.58 Q1215.69 1743.97 1217.5 1741.95 Q1219.34 1739.9 1222.31 1739.9 Q1224.27 1739.9 1225.52 1741 Q1226.79 1742.1 1226.79 1743.61 Q1226.79 1744.95 1225.96 1745.63 Q1225.16 1746.29 1224.18 1746.29 Q1223.08 1746.29 1222.31 1745.6 Q1221.57 1744.89 1221.57 1743.67 Q1221.57 1742.93 1221.89 1742.37 Q1222.25 1741.77 1222.52 1741.56 Q1222.78 1741.36 1222.96 1741.3 Q1222.84 1741.24 1222.31 1741.24 Q1218.95 1741.24 1217.02 1744.59 Q1215.12 1747.92 1215.12 1752.67 L1215.12 1762.02 Q1215.12 1763.77 1215.84 1764.34 Q1216.58 1764.9 1219.76 1764.9 L1221.03 1764.9 L1221.03 1766.77 Q1218.6 1766.59 1213.31 1766.59 Q1212.57 1766.59 1211.41 1766.62 Q1210.25 1766.65 1208.74 1766.71 Q1207.23 1766.77 1206.37 1766.77 Z" fill="#000000" fill-rule="evenodd" fill-opacity="1" /><path clip-path="url(#clip970)" d="M 0 0 M1249.8 1727.14 L1249.8 1725.24 Q1256.36 1725.41 1257.52 1725.41 Q1264.02 1725.41 1266.22 1725.24 L1266.22 1727.14 Q1261.23 1727.14 1261.23 1728.89 Q1261.23 1729.12 1261.59 1729.99 L1273.2 1760.68 L1284.33 1731.38 Q1284.63 1730.46 1284.63 1730.16 Q1284.63 1728.95 1283.5 1728.09 Q1282.4 1727.19 1280.2 1727.14 L1280.2 1725.24 Q1284.95 1725.41 1287.12 1725.41 Q1290.21 1725.41 1293.03 1725.24 L1293.03 1727.14 Q1287.92 1727.19 1286.41 1731.2 L1272.84 1766.95 Q1272.6 1767.69 1272.37 1767.9 Q1272.13 1768.11 1271.39 1768.11 Q1270.79 1768.11 1270.47 1767.87 Q1270.17 1767.63 1269.87 1766.77 L1255.77 1729.45 Q1255.18 1727.82 1254.11 1727.49 Q1253.04 1727.14 1249.8 1727.14 Z" fill="#000000" fill-rule="evenodd" fill-opacity="1" /><path clip-path="url(#clip970)" d="M 0 0 M1291.75 1760.98 Q1291.75 1755.82 1297.84 1753.08 Q1301.49 1751.33 1309.03 1750.89 L1309.03 1748.66 Q1309.03 1744.89 1307.04 1742.9 Q1305.08 1740.88 1302.59 1740.88 Q1298.14 1740.88 1296 1743.67 Q1297.81 1743.73 1298.46 1744.65 Q1299.12 1745.54 1299.12 1746.46 Q1299.12 1747.68 1298.34 1748.48 Q1297.6 1749.25 1296.33 1749.25 Q1295.11 1749.25 1294.31 1748.51 Q1293.5 1747.74 1293.5 1746.4 Q1293.5 1743.44 1296.18 1741.48 Q1298.88 1739.52 1302.71 1739.52 Q1307.7 1739.52 1311.02 1742.87 Q1312.06 1743.91 1312.57 1745.25 Q1313.1 1746.58 1313.16 1747.47 Q1313.22 1748.33 1313.22 1750.06 L1313.22 1762.2 Q1313.22 1762.56 1313.34 1763.15 Q1313.46 1763.74 1313.99 1764.51 Q1314.55 1765.26 1315.48 1765.26 Q1317.67 1765.26 1317.64 1761.37 L1317.64 1757.95 L1319.19 1757.95 L1319.19 1761.37 Q1319.19 1764.6 1317.46 1765.88 Q1315.77 1767.13 1314.2 1767.13 Q1312.18 1767.13 1310.9 1765.64 Q1309.63 1764.16 1309.45 1762.14 Q1308.53 1764.46 1306.42 1765.97 Q1304.34 1767.45 1301.49 1767.45 Q1299.29 1767.45 1297.22 1766.89 Q1295.17 1766.36 1293.45 1764.84 Q1291.75 1763.3 1291.75 1760.98 M1296.44 1760.92 Q1296.44 1763.18 1298.05 1764.63 Q1299.65 1766.09 1301.91 1766.09 Q1304.46 1766.09 1306.75 1764.13 Q1309.03 1762.14 1309.03 1758.25 L1309.03 1752.16 Q1302.29 1752.4 1299.35 1755.1 Q1296.44 1757.78 1296.44 1760.92 Z" fill="#000000" fill-rule="evenodd" fill-opacity="1" /><path clip-path="url(#clip970)" d="M 0 0 M1321.62 1766.77 L1321.62 1764.9 Q1324.86 1764.9 1325.6 1764.51 Q1326.34 1764.1 1326.34 1762.14 L1326.34 1730.52 Q1326.34 1728.26 1325.54 1727.7 Q1324.77 1727.14 1321.62 1727.14 L1321.62 1725.24 L1330.35 1724.58 L1330.35 1762.14 Q1330.35 1764.1 1331.12 1764.51 Q1331.89 1764.9 1335.1 1764.9 L1335.1 1766.77 Q1334.36 1766.77 1332.81 1766.71 Q1331.27 1766.65 1330.14 1766.62 Q1329.01 1766.59 1328.36 1766.59 Q1327.65 1766.59 1321.62 1766.77 Z" fill="#000000" fill-rule="evenodd" fill-opacity="1" /><path clip-path="url(#clip970)" d="M 0 0 M1338.4 1742.46 L1338.4 1740.56 L1347.33 1739.9 L1347.33 1760.09 Q1347.33 1761.55 1347.45 1762.41 Q1347.57 1763.24 1348.04 1764.22 Q1348.55 1765.2 1349.68 1765.64 Q1350.84 1766.09 1352.68 1766.09 Q1355.97 1766.09 1357.99 1763.39 Q1360.04 1760.68 1360.04 1756.68 L1360.04 1745.84 Q1360.04 1743.58 1359.24 1743.02 Q1358.44 1742.46 1355.29 1742.46 L1355.29 1740.56 L1364.23 1739.9 L1364.23 1761.49 Q1364.23 1763.74 1365 1764.34 Q1365.8 1764.9 1368.98 1764.9 L1368.98 1766.77 L1360.22 1767.45 L1360.22 1761.96 Q1357.66 1767.42 1352.38 1767.45 Q1349.71 1767.45 1347.87 1766.77 Q1346.06 1766.09 1345.14 1765.26 Q1344.21 1764.4 1343.71 1762.76 Q1343.24 1761.13 1343.18 1760.12 Q1343.12 1759.11 1343.12 1757.15 L1343.12 1748.04 Q1343.12 1743.91 1342.52 1743.2 Q1341.93 1742.46 1338.4 1742.46 Z" fill="#000000" fill-rule="evenodd" fill-opacity="1" /><path clip-path="url(#clip970)" d="M 0 0 M1371.86 1753.38 Q1371.86 1747.65 1375.54 1743.58 Q1379.22 1739.52 1384.5 1739.52 Q1389.85 1739.52 1392.61 1742.99 Q1395.4 1746.46 1395.4 1751.45 Q1395.4 1752.37 1395.16 1752.55 Q1394.93 1752.73 1393.89 1752.73 L1376.9 1752.73 Q1376.9 1758.93 1378.74 1761.84 Q1381.3 1765.91 1385.6 1765.91 Q1386.2 1765.91 1386.91 1765.79 Q1387.62 1765.67 1389.08 1765.17 Q1390.53 1764.63 1391.81 1763.24 Q1393.08 1761.84 1393.83 1759.65 Q1394 1758.78 1394.6 1758.81 Q1395.4 1758.81 1395.4 1759.53 Q1395.4 1760.06 1394.81 1761.28 Q1394.24 1762.47 1393.14 1763.89 Q1392.05 1765.32 1389.91 1766.39 Q1387.8 1767.45 1385.25 1767.45 Q1379.9 1767.45 1375.86 1763.42 Q1371.86 1759.35 1371.86 1753.38 M1376.96 1751.45 L1391.39 1751.45 Q1391.39 1750.17 1391.15 1748.75 Q1390.95 1747.32 1390.29 1745.36 Q1389.67 1743.38 1388.19 1742.13 Q1386.7 1740.88 1384.5 1740.88 Q1383.52 1740.88 1382.46 1741.3 Q1381.42 1741.71 1380.14 1742.72 Q1378.86 1743.73 1377.97 1746.02 Q1377.08 1748.3 1376.96 1751.45 Z" fill="#000000" fill-rule="evenodd" fill-opacity="1" /><path clip-path="url(#clip970)" d="M 0 0 M1419.06 1766.77 L1419.06 1764.9 L1420.67 1764.9 Q1424.08 1764.9 1424.85 1764.37 Q1425.65 1763.8 1425.65 1762.02 L1425.65 1729.99 Q1425.65 1728.23 1424.85 1727.7 Q1424.05 1727.14 1420.67 1727.14 L1419.06 1727.14 L1419.06 1725.24 Q1421.2 1725.41 1428.39 1725.41 Q1435.51 1725.41 1437.62 1725.24 L1437.62 1727.14 L1436.05 1727.14 Q1432.63 1727.14 1431.83 1727.7 Q1431.06 1728.23 1431.06 1729.99 L1431.06 1762.02 Q1431.06 1763.77 1431.83 1764.34 Q1432.63 1764.9 1436.05 1764.9 L1437.62 1764.9 L1437.62 1766.77 Q1435.48 1766.59 1428.33 1766.59 Q1421.2 1766.59 1419.06 1766.77 Z" fill="#000000" fill-rule="evenodd" fill-opacity="1" /><path clip-path="url(#clip970)" d="M 0 0 M1441.45 1766.77 L1441.45 1764.9 L1442.9 1764.9 Q1446.2 1764.9 1446.94 1764.37 Q1447.71 1763.8 1447.71 1762.02 L1447.71 1729.99 Q1447.71 1728.23 1446.94 1727.7 Q1446.17 1727.14 1442.9 1727.14 L1441.45 1727.14 L1441.45 1725.24 L1463.69 1725.24 Q1471.47 1725.24 1476.87 1731.44 Q1482.3 1737.65 1482.3 1746.34 Q1482.3 1754.87 1476.84 1760.83 Q1471.41 1766.77 1463.69 1766.77 L1441.45 1766.77 M1452.94 1762.47 Q1452.94 1764.04 1453.38 1764.49 Q1453.83 1764.9 1455.91 1764.9 L1462.05 1764.9 Q1466.06 1764.9 1468.76 1763.27 Q1471.47 1761.61 1472.86 1759.71 Q1476.22 1755.13 1476.22 1746.34 Q1476.22 1737.11 1473.07 1732.78 Q1469 1727.14 1461.99 1727.14 L1455.91 1727.14 Q1453.83 1727.14 1453.38 1727.55 Q1452.94 1727.97 1452.94 1729.57 L1452.94 1762.47 Z" fill="#000000" fill-rule="evenodd" fill-opacity="1" /><path clip-path="url(#clip970)" d="M 0 0 M1487.71 1765.97 L1487.71 1757.95 Q1487.71 1757.27 1487.74 1757.03 Q1487.76 1756.8 1487.94 1756.62 Q1488.12 1756.44 1488.48 1756.44 Q1488.89 1756.44 1489.04 1756.62 Q1489.22 1756.8 1489.34 1757.48 Q1490.26 1761.66 1492.22 1763.89 Q1494.21 1766.09 1497.8 1766.09 Q1501.21 1766.09 1502.94 1764.57 Q1504.66 1763.06 1504.66 1760.57 Q1504.66 1756.11 1498.33 1754.98 Q1494.68 1754.24 1493.17 1753.77 Q1491.65 1753.26 1490.32 1752.16 Q1487.71 1750.03 1487.71 1747 Q1487.71 1743.97 1489.99 1741.74 Q1492.31 1739.52 1497.41 1739.52 Q1500.83 1739.52 1503.14 1741.24 Q1503.83 1740.7 1504.18 1740.26 Q1504.98 1739.52 1505.4 1739.52 Q1505.88 1739.52 1505.96 1739.84 Q1506.05 1740.14 1506.05 1741 L1506.05 1747.12 Q1506.05 1747.8 1506.02 1748.04 Q1505.99 1748.27 1505.82 1748.45 Q1505.64 1748.6 1505.25 1748.6 Q1504.57 1748.6 1504.54 1748.04 Q1504.06 1740.67 1497.41 1740.67 Q1493.82 1740.67 1492.22 1742.07 Q1490.62 1743.44 1490.62 1745.31 Q1490.62 1746.34 1491.09 1747.15 Q1491.59 1747.92 1492.22 1748.39 Q1492.87 1748.84 1494.06 1749.28 Q1495.25 1749.7 1495.96 1749.85 Q1496.7 1750 1498.1 1750.29 Q1502.97 1751.21 1505.01 1753.2 Q1507.57 1755.76 1507.57 1758.99 Q1507.57 1762.58 1505.13 1765.02 Q1502.7 1767.45 1497.8 1767.45 Q1493.85 1767.45 1491.09 1764.81 Q1490.73 1765.17 1490.47 1765.49 Q1490.2 1765.79 1490.08 1765.91 Q1489.99 1766.03 1489.96 1766.12 Q1489.93 1766.18 1489.87 1766.24 Q1488.66 1767.45 1488.36 1767.45 Q1487.88 1767.45 1487.79 1767.13 Q1487.71 1766.83 1487.71 1765.97 Z" fill="#000000" fill-rule="evenodd" fill-opacity="1" /><path clip-path="url(#clip970)" d="M 0 0 M70.4924 1058.3 L58.3196 1058.3 Q57.6367 1058.3 57.3992 1058.27 Q57.1617 1058.24 56.9835 1058.06 Q56.8054 1057.88 56.8054 1057.53 Q56.8054 1056.85 57.4289 1056.79 Q63.4559 1056.61 66.7811 1053.02 Q70.0767 1049.48 70.0767 1043.43 Q70.0767 1039.77 67.464 1037.52 Q64.8216 1035.26 61.3776 1035.26 Q58.082 1035.26 55.7662 1037.16 Q54.7271 1037.96 54.0739 1038.97 Q53.3911 1039.95 53.1832 1040.58 Q52.9754 1041.17 52.6785 1042.33 Q50.8674 1049.87 50.6596 1050.34 Q49.4423 1053.94 46.3843 1056.13 Q43.2966 1058.3 39.526 1058.3 Q34.6568 1058.3 31.2128 1054.89 Q27.7391 1051.44 27.7391 1046.45 Q27.7391 1043.96 28.5408 1041.88 Q29.3127 1039.77 30.0252 1038.91 Q30.7378 1038.05 32.0145 1036.72 L28.5408 1034.61 Q27.7391 1034.13 27.7391 1033.69 Q27.7391 1033.21 28.036 1033.12 Q28.3032 1033 29.1939 1033 L41.4261 1033 Q42.109 1033 42.3465 1033.03 Q42.584 1033.06 42.7324 1033.27 Q42.8809 1033.45 42.8809 1033.81 Q42.8809 1034.4 42.1683 1034.55 Q29.4611 1036.24 29.4611 1046.39 Q29.4611 1049.87 31.8066 1052.15 Q34.1224 1054.41 37.418 1054.41 Q40.0901 1054.41 42.2871 1052.75 Q44.4545 1051.09 45.1373 1048.27 L47.0078 1040.49 Q47.9282 1036.6 51.3722 1033.98 Q54.8162 1031.37 59.2993 1031.37 Q64.4653 1031.37 68.2062 1034.76 Q71.9472 1038.11 71.9472 1043.37 Q71.9472 1047.14 70.7002 1050.05 Q69.4532 1052.96 67.7015 1054.53 Q69.7204 1055.75 70.8486 1056.55 L71.1455 1056.73 Q71.9472 1057.2 71.9472 1057.65 Q71.9472 1058.12 71.6503 1058.21 Q71.3534 1058.3 70.4924 1058.3 Z" fill="#000000" fill-rule="evenodd" fill-opacity="1" /><path clip-path="url(#clip970)" d="M 0 0 M70.6111 1025.97 L68.7407 1025.97 Q68.7407 1022.73 68.3547 1021.99 Q67.939 1021.25 65.9795 1021.25 L49.6205 1021.25 Q47.364 1021.25 46.8296 1022.02 Q46.2952 1022.76 46.2952 1025.73 L44.3951 1025.73 L43.7419 1017.24 L66.0389 1017.24 Q67.85 1017.24 68.2953 1016.59 Q68.7407 1015.93 68.7407 1012.96 L70.6111 1012.96 Q70.433 1019.17 70.433 1019.29 Q70.433 1020.12 70.6111 1025.97 M33.1427 1023.42 Q31.9254 1023.42 30.9456 1022.49 Q29.9362 1021.54 29.9362 1020.21 Q29.9362 1018.87 30.8566 1017.92 Q31.7472 1016.97 33.1724 1016.97 Q34.5678 1016.97 35.4882 1017.92 Q36.3788 1018.87 36.3788 1020.21 Q36.3788 1021.6 35.3991 1022.52 Q34.4193 1023.42 33.1427 1023.42 Z" fill="#000000" fill-rule="evenodd" fill-opacity="1" /><path clip-path="url(#clip970)" d="M 0 0 M70.6111 1009.19 L68.7407 1009.19 Q68.7407 1005.96 68.3547 1005.22 Q67.939 1004.47 65.9795 1004.47 L49.6798 1004.47 Q47.4234 1004.47 46.8593 1005.27 Q46.2952 1006.05 46.2952 1009.19 L44.3951 1009.19 L43.7419 1000.64 L50.1252 1000.64 Q43.7419 997.793 43.7419 991.647 Q43.7419 987.075 45.9983 985.264 Q47.5125 983.928 49.2048 983.661 Q50.8971 983.364 55.2912 983.364 L66.8999 983.364 Q68.1766 983.304 68.4735 982.324 Q68.7407 981.345 68.7407 978.613 L70.6111 978.613 Q70.433 984.818 70.433 985.442 Q70.433 985.917 70.6111 992.3 L68.7407 992.3 Q68.7407 989.064 68.3547 988.322 Q67.939 987.55 65.9795 987.55 L51.8175 987.55 Q48.7298 987.55 46.9187 988.5 Q45.0779 989.45 45.0779 992.063 Q45.0779 995.21 47.7203 997.733 Q50.3627 1000.26 54.8162 1000.26 L65.9795 1000.26 Q67.939 1000.26 68.3547 999.515 Q68.7407 998.743 68.7407 995.536 L70.6111 995.536 Q70.433 1001.74 70.433 1002.34 Q70.433 1002.81 70.6111 1009.19 Z" fill="#000000" fill-rule="evenodd" fill-opacity="1" /><path clip-path="url(#clip970)" d="M 0 0 M75.4209 975.733 Q73.4613 975.733 71.769 974.249 Q70.0767 972.735 69.3345 970.122 Q67.6421 972.794 63.9309 972.794 Q61.0807 972.794 58.8837 970.924 Q56.5085 973.774 52.6191 973.774 Q49.0267 973.774 46.3843 970.924 Q43.7419 968.073 43.7419 963.917 Q43.7419 960.265 45.9389 957.474 Q43.0887 954.565 43.059 951.031 Q43.059 949.458 44.0388 948.716 Q45.0186 947.944 46.0577 947.944 Q46.9781 947.944 47.4234 948.538 Q47.8688 949.102 47.8688 949.695 Q47.8688 950.438 47.3937 950.972 Q46.889 951.477 46.1171 951.477 Q44.8404 951.477 44.4545 950.497 Q44.3951 950.675 44.3951 951.091 Q44.3951 954.06 46.7703 956.583 Q49.0861 954.09 52.6785 954.09 Q56.271 954.09 58.9134 956.94 Q61.5557 959.79 61.5557 963.917 Q61.5557 967.331 59.6556 969.944 Q60.8729 970.983 62.5355 970.983 Q64.0497 970.983 65.2373 970.063 Q66.4249 969.142 66.603 967.747 Q66.6624 967.331 66.6624 963.204 Q66.6624 960.77 66.7218 959.434 Q66.7811 958.098 67.1968 956.197 Q67.5828 954.268 68.3547 952.753 Q70.5517 948.805 75.3021 948.775 Q78.7758 948.775 80.9431 952.783 Q83.1402 956.762 83.1402 962.284 Q83.1402 967.866 80.9135 971.814 Q78.7164 975.733 75.4209 975.733 M75.4209 972.557 Q77.9148 972.557 79.8149 969.617 Q81.7448 966.678 81.7448 962.225 Q81.7448 957.86 79.8446 954.921 Q77.9742 951.952 75.4209 951.952 Q73.6098 951.952 72.4519 952.991 Q71.294 954.03 70.8189 956.168 Q70.3736 958.276 70.2845 959.76 Q70.1955 961.245 70.1955 963.976 L70.1955 967.569 Q70.3142 969.647 71.8284 971.102 Q73.3426 972.557 75.4209 972.557 M52.6785 969.231 Q60.1603 969.231 60.1603 963.917 Q60.1603 961.245 57.7258 959.612 Q56.0928 958.632 52.6191 958.632 Q45.1373 958.632 45.1373 963.917 Q45.1373 966.589 47.5719 968.252 Q49.2048 969.231 52.6785 969.231 Z" fill="#000000" fill-rule="evenodd" fill-opacity="1" /><path clip-path="url(#clip970)" d="M 0 0 M46.2952 945.064 L44.3951 945.064 L43.7419 936.127 L63.9309 936.127 Q65.3857 936.127 66.2467 936.008 Q67.078 935.89 68.0578 935.415 Q69.0376 934.91 69.4829 933.782 Q69.9283 932.624 69.9283 930.783 Q69.9283 927.488 67.2265 925.469 Q64.5247 923.42 60.5166 923.42 L49.6798 923.42 Q47.4234 923.42 46.8593 924.222 Q46.2952 925.023 46.2952 928.17 L44.3951 928.17 L43.7419 919.234 L65.3263 919.234 Q67.5828 919.234 68.1766 918.462 Q68.7407 917.66 68.7407 914.483 L70.6111 914.483 L71.294 923.242 L65.8014 923.242 Q71.2643 925.795 71.294 931.08 Q71.294 933.752 70.6111 935.593 Q69.9283 937.404 69.0969 938.324 Q68.2359 939.245 66.603 939.749 Q64.9701 940.224 63.9606 940.284 Q62.9512 940.343 60.9916 940.343 L51.8769 940.343 Q47.75 940.343 47.0375 940.937 Q46.2952 941.531 46.2952 945.064 Z" fill="#000000" fill-rule="evenodd" fill-opacity="1" /><path clip-path="url(#clip970)" d="M 0 0 M70.6111 911.277 L68.7407 911.277 Q68.7407 908.041 68.3547 907.298 Q67.939 906.556 65.9795 906.556 L34.3599 906.556 Q32.1035 906.556 31.5394 907.358 Q30.9753 908.13 30.9753 911.277 L29.0752 911.277 L28.422 902.548 L65.9795 902.548 Q67.939 902.548 68.3547 901.776 Q68.7407 901.004 68.7407 897.798 L70.6111 897.798 Q70.6111 898.54 70.5517 900.084 Q70.4924 901.628 70.4627 902.756 Q70.433 903.884 70.433 904.537 Q70.433 905.25 70.6111 911.277 Z" fill="#000000" fill-rule="evenodd" fill-opacity="1" /><path clip-path="url(#clip970)" d="M 0 0 M64.8216 893.908 Q59.6556 893.908 56.9241 887.822 Q55.1724 884.17 54.7271 876.629 L52.5004 876.629 Q48.7298 876.629 46.7406 878.618 Q44.7217 880.578 44.7217 883.072 Q44.7217 887.525 47.5125 889.663 Q47.5719 887.852 48.4923 887.199 Q49.3829 886.545 50.3033 886.545 Q51.5206 886.545 52.3222 887.317 Q53.0942 888.06 53.0942 889.336 Q53.0942 890.553 52.3519 891.355 Q51.58 892.157 50.244 892.157 Q47.275 892.157 45.3155 889.485 Q43.3559 886.783 43.3559 882.953 Q43.3559 877.965 46.7109 874.64 Q47.75 873.601 49.0861 873.096 Q50.4221 872.561 51.3128 872.502 Q52.1738 872.443 53.8958 872.443 L66.0389 872.443 Q66.3952 872.443 66.989 872.324 Q67.5828 872.205 68.3547 871.671 Q69.0969 871.107 69.0969 870.186 Q69.0969 867.989 65.2076 868.019 L61.7933 868.019 L61.7933 866.475 L65.2076 866.475 Q68.4438 866.475 69.7204 868.197 Q70.9674 869.889 70.9674 871.463 Q70.9674 873.482 69.4829 874.759 Q67.9984 876.035 65.9795 876.213 Q68.2953 877.134 69.8095 879.242 Q71.294 881.32 71.294 884.17 Q71.294 886.367 70.7299 888.445 Q70.1955 890.494 68.6813 892.216 Q67.1374 893.908 64.8216 893.908 M64.7622 889.217 Q67.0187 889.217 68.4735 887.614 Q69.9283 886.011 69.9283 883.755 Q69.9283 881.201 67.9687 878.915 Q65.9795 876.629 62.0902 876.629 L56.0038 876.629 Q56.2413 883.369 58.943 886.308 Q61.6151 889.217 64.7622 889.217 Z" fill="#000000" fill-rule="evenodd" fill-opacity="1" /><path clip-path="url(#clip970)" d="M 0 0 M70.6111 864.367 L68.7407 864.367 Q68.7407 861.131 68.3547 860.389 Q67.939 859.617 65.9795 859.617 L49.6798 859.617 Q47.4234 859.617 46.8593 860.418 Q46.2952 861.19 46.2952 864.367 L44.3951 864.367 L43.7419 855.906 L50.4221 855.906 Q47.8094 855.045 45.7905 853.233 Q43.7419 851.393 43.7419 848.424 Q43.7419 846.464 44.8404 845.217 Q45.9389 843.941 47.4531 843.941 Q48.7892 843.941 49.472 844.772 Q50.1252 845.574 50.1252 846.553 Q50.1252 847.652 49.4423 848.424 Q48.7298 849.166 47.5125 849.166 Q46.7703 849.166 46.2061 848.839 Q45.6124 848.483 45.4045 848.216 Q45.1967 847.949 45.1373 847.771 Q45.0779 847.889 45.0779 848.424 Q45.0779 851.779 48.4329 853.708 Q51.7581 855.609 56.5085 855.609 L65.8608 855.609 Q67.6125 855.609 68.1766 854.896 Q68.7407 854.154 68.7407 850.977 L68.7407 849.7 L70.6111 849.7 Q70.433 852.135 70.433 857.42 Q70.433 858.162 70.4627 859.32 Q70.4924 860.478 70.5517 861.992 Q70.6111 863.506 70.6111 864.367 Z" fill="#000000" fill-rule="evenodd" fill-opacity="1" /><path clip-path="url(#clip970)" d="M 0 0 M30.9753 820.931 L29.0752 820.931 Q29.2533 814.37 29.2533 813.212 Q29.2533 806.71 29.0752 804.513 L30.9753 804.513 Q30.9753 809.5 32.727 809.5 Q32.9645 809.5 33.8255 809.144 L64.5247 797.536 L35.2209 786.402 Q34.3006 786.105 34.0037 786.105 Q32.7864 786.105 31.9254 787.233 Q31.0347 788.332 30.9753 790.529 L29.0752 790.529 Q29.2533 785.778 29.2533 783.611 Q29.2533 780.523 29.0752 777.703 L30.9753 777.703 Q31.0347 782.809 35.0428 784.324 L70.7893 797.892 Q71.5315 798.129 71.7393 798.367 Q71.9472 798.604 71.9472 799.347 Q71.9472 799.94 71.7096 800.267 Q71.4721 800.564 70.6111 800.861 L33.2911 814.963 Q31.6582 815.557 31.3316 816.626 Q30.9753 817.695 30.9753 820.931 Z" fill="#000000" fill-rule="evenodd" fill-opacity="1" /><path clip-path="url(#clip970)" d="M 0 0 M64.8216 778.979 Q59.6556 778.979 56.9241 772.893 Q55.1724 769.241 54.7271 761.7 L52.5004 761.7 Q48.7298 761.7 46.7406 763.689 Q44.7217 765.649 44.7217 768.143 Q44.7217 772.596 47.5125 774.734 Q47.5719 772.923 48.4923 772.27 Q49.3829 771.616 50.3033 771.616 Q51.5206 771.616 52.3222 772.388 Q53.0942 773.131 53.0942 774.407 Q53.0942 775.624 52.3519 776.426 Q51.58 777.228 50.244 777.228 Q47.275 777.228 45.3155 774.556 Q43.3559 771.854 43.3559 768.024 Q43.3559 763.036 46.7109 759.711 Q47.75 758.672 49.0861 758.167 Q50.4221 757.632 51.3128 757.573 Q52.1738 757.514 53.8958 757.514 L66.0389 757.514 Q66.3952 757.514 66.989 757.395 Q67.5828 757.276 68.3547 756.742 Q69.0969 756.178 69.0969 755.257 Q69.0969 753.06 65.2076 753.09 L61.7933 753.09 L61.7933 751.546 L65.2076 751.546 Q68.4438 751.546 69.7204 753.268 Q70.9674 754.96 70.9674 756.534 Q70.9674 758.553 69.4829 759.83 Q67.9984 761.106 65.9795 761.284 Q68.2953 762.205 69.8095 764.313 Q71.294 766.391 71.294 769.241 Q71.294 771.438 70.7299 773.516 Q70.1955 775.565 68.6813 777.287 Q67.1374 778.979 64.8216 778.979 M64.7622 774.288 Q67.0187 774.288 68.4735 772.685 Q69.9283 771.082 69.9283 768.826 Q69.9283 766.272 67.9687 763.986 Q65.9795 761.7 62.0902 761.7 L56.0038 761.7 Q56.2413 768.44 58.943 771.379 Q61.6151 774.288 64.7622 774.288 Z" fill="#000000" fill-rule="evenodd" fill-opacity="1" /><path clip-path="url(#clip970)" d="M 0 0 M70.6111 749.112 L68.7407 749.112 Q68.7407 745.875 68.3547 745.133 Q67.939 744.391 65.9795 744.391 L34.3599 744.391 Q32.1035 744.391 31.5394 745.192 Q30.9753 745.964 30.9753 749.112 L29.0752 749.112 L28.422 740.383 L65.9795 740.383 Q67.939 740.383 68.3547 739.611 Q68.7407 738.839 68.7407 735.632 L70.6111 735.632 Q70.6111 736.375 70.5517 737.918 Q70.4924 739.462 70.4627 740.591 Q70.433 741.719 70.433 742.372 Q70.433 743.085 70.6111 749.112 Z" fill="#000000" fill-rule="evenodd" fill-opacity="1" /><path clip-path="url(#clip970)" d="M 0 0 M46.2952 732.337 L44.3951 732.337 L43.7419 723.4 L63.9309 723.4 Q65.3857 723.4 66.2467 723.281 Q67.078 723.163 68.0578 722.688 Q69.0376 722.183 69.4829 721.055 Q69.9283 719.897 69.9283 718.056 Q69.9283 714.76 67.2265 712.742 Q64.5247 710.693 60.5166 710.693 L49.6798 710.693 Q47.4234 710.693 46.8593 711.495 Q46.2952 712.296 46.2952 715.443 L44.3951 715.443 L43.7419 706.507 L65.3263 706.507 Q67.5828 706.507 68.1766 705.735 Q68.7407 704.933 68.7407 701.756 L70.6111 701.756 L71.294 710.515 L65.8014 710.515 Q71.2643 713.068 71.294 718.353 Q71.294 721.025 70.6111 722.866 Q69.9283 724.677 69.0969 725.597 Q68.2359 726.518 66.603 727.022 Q64.9701 727.497 63.9606 727.557 Q62.9512 727.616 60.9916 727.616 L51.8769 727.616 Q47.75 727.616 47.0375 728.21 Q46.2952 728.804 46.2952 732.337 Z" fill="#000000" fill-rule="evenodd" fill-opacity="1" /><path clip-path="url(#clip970)" d="M 0 0 M57.221 698.876 Q51.4909 698.876 47.4234 695.195 Q43.3559 691.513 43.3559 686.229 Q43.3559 680.885 46.8296 678.123 Q50.3033 675.333 55.2912 675.333 Q56.2116 675.333 56.3897 675.57 Q56.5679 675.808 56.5679 676.847 L56.5679 693.829 Q62.773 693.829 65.6826 691.988 Q69.7501 689.435 69.7501 685.13 Q69.7501 684.536 69.6314 683.824 Q69.5126 683.111 69.0079 681.656 Q68.4735 680.202 67.078 678.925 Q65.6826 677.648 63.4856 676.906 Q62.6246 676.728 62.6543 676.134 Q62.6543 675.333 63.3668 675.333 Q63.9012 675.333 65.1185 675.926 Q66.3061 676.49 67.7312 677.589 Q69.1563 678.687 70.2251 680.825 Q71.294 682.933 71.294 685.486 Q71.294 690.831 67.2562 694.868 Q63.1887 698.876 57.221 698.876 M55.2912 693.77 L55.2912 679.341 Q54.0145 679.341 52.5894 679.578 Q51.1643 679.786 49.2048 680.439 Q47.2156 681.063 45.9686 682.547 Q44.7217 684.032 44.7217 686.229 Q44.7217 687.208 45.1373 688.277 Q45.553 689.316 46.5624 690.593 Q47.5719 691.87 49.858 692.76 Q52.1441 693.651 55.2912 693.77 Z" fill="#000000" fill-rule="evenodd" fill-opacity="1" /><path clip-path="url(#clip970)" d="M 0 0 M69.8095 671.562 L61.7933 671.562 Q61.1104 671.562 60.8729 671.532 Q60.6354 671.503 60.4572 671.324 Q60.2791 671.146 60.2791 670.79 Q60.2791 670.374 60.4572 670.226 Q60.6354 670.048 61.3182 669.929 Q65.5045 669.009 67.7312 667.049 Q69.9283 665.06 69.9283 661.467 Q69.9283 658.053 68.4141 656.331 Q66.8999 654.609 64.406 654.609 Q59.9525 654.609 58.8243 660.933 Q58.082 664.585 57.607 666.099 Q57.1023 667.613 56.0038 668.949 Q53.8661 671.562 50.8377 671.562 Q47.8094 671.562 45.5827 669.276 Q43.3559 666.96 43.3559 661.853 Q43.3559 658.439 45.0779 656.123 Q44.5435 655.44 44.0982 655.084 Q43.3559 654.282 43.3559 653.867 Q43.3559 653.392 43.6825 653.303 Q43.9794 653.214 44.8404 653.214 L50.9565 653.214 Q51.6394 653.214 51.8769 653.243 Q52.1144 653.273 52.2925 653.451 Q52.441 653.629 52.441 654.015 Q52.441 654.698 51.8769 654.728 Q44.5138 655.203 44.5138 661.853 Q44.5138 665.446 45.9092 667.049 Q47.275 668.652 49.1454 668.652 Q50.1846 668.652 50.9862 668.177 Q51.7581 667.673 52.2332 667.049 Q52.6785 666.396 53.1239 665.208 Q53.5395 664.021 53.688 663.308 Q53.8364 662.566 54.1333 661.171 Q55.0537 656.301 57.0429 654.253 Q59.5962 651.699 62.8324 651.699 Q66.4249 651.699 68.8594 654.134 Q71.294 656.569 71.294 661.467 Q71.294 665.416 68.6516 668.177 Q69.0079 668.534 69.3345 668.801 Q69.6314 669.068 69.7501 669.187 Q69.8689 669.276 69.9579 669.306 Q70.0173 669.335 70.0767 669.395 Q71.294 670.612 71.294 670.909 Q71.294 671.384 70.9674 671.473 Q70.6705 671.562 69.8095 671.562 Z" fill="#000000" fill-rule="evenodd" fill-opacity="1" /></svg>
